<?xml version="1.0" encoding="UTF-8"?>
<svg xmlns="http://www.w3.org/2000/svg" viewBox="0 -6 430 88" preserveAspectRatio="xMinYMid meet" aria-labelledby="logo-title">
  <title id="logo-title">Launch48</title>
  <defs>
    <style>
      .wordmark {
        font-family: Poppins-Bold, Poppins, "Space Grotesk", sans-serif;
        font-size: 64.33px;
        font-weight: 700;
      }
    </style>
  </defs>
  <g>
    <text class="wordmark" transform="translate(74.95 61.25)"><tspan x="0" y="0">Launch48</tspan></text>
    <g>
      <path d="M71.83,0l2.56.62c.82.73.34,2.85.8,2.74v3.6c-.1.15-.16.57-.21.97-1.24,10.72-6.57,22.23-12.77,30.95-3.65,5.13-7.99,9.43-13.05,13.08.7,8.09-1.57,14.19-8.21,18.7-3.37,2.31-7.68,3.73-11.53,4.45-.19.04-.54.23-.55.26h-.68c-.34-.25-1.22-.97-1.3-1.45l1.63-15.03-3.04-.26c-.72-.06-1.68-.41-2.19-.93l-5.79-5.78c-.53-.53-.84-1.47-.91-2.2l-.27-3.03-14.57,1.6c-.42.05-1.14-.23-1.36-.49s-.44-1.08-.37-1.48c1.37-8.26,5.65-16.84,14.11-19.5,3.02-.95,6.03-.96,9.2-.78C31.44,14.31,45.61,6.1,58.94,2.05c3.31-1.01,6.52-1.51,9.77-2.05h3.12ZM48.3,17.67c-4.62.77-7.39,5.11-6.58,9.43s4.94,7.18,9.26,6.44,7.33-4.89,6.58-9.29-4.7-7.33-9.25-6.57Z"/>
      <path d="M23.61,61.55c1.64.27-1.15,6.32-3.12,7.39-4.74,2.79-12.23,3.34-17.85,3.64.27-5.53.89-13.33,3.66-17.84,1.32-2.47,8.7-5.18,7.16-2.45-1.72,3.06-2.62,6.51-.13,9.22,1.52,1.66,3.74,2.22,6.06,1.72,3.28-.7,3.35-1.82,4.22-1.68Z"/>
    </g>
  </g>
</svg>
